<svg height="512" viewBox="0 0 46 60" width="512" xmlns="http://www.w3.org/2000/svg"><g id="Page-1" fill="none" fill-rule="evenodd"><g id="004---Railway-Location" fill-rule="nonzero" transform="translate(0 -1)"><path id="Shape" d="m44.917 26.424c-1.328 19.255-18.129 31.294-21.376 33.413-.3280624.2168803-.7539376.2168803-1.082 0-3.381-2.206-21.459-15.153-21.459-35.837-.00115558-5.9109194 2.37631255-11.5736517 6.5966786-15.71218764 4.220366-4.13853591 9.9285575-6.40468747 15.8383214-6.28781236 12.799.252 22.365 11.653 21.482 24.424z" fill="#f44335"/><path id="Shape" d="m23.435 2c-.643-.012-1.279.009-1.909.051 12.247.853 21.246 11.963 20.391 24.369-1.228 17.811-15.68 29.439-20.417 32.765.386.271.715.493.959.652.3280624.2168803.7539376.2168803 1.082 0 3.247-2.119 20.048-14.158 21.376-33.413.883-12.771-8.683-24.172-21.482-24.424z" fill="#c81e1e"/><path id="Shape" d="m28.393 50.723c-1.5115124 1.4767591-3.1093203 2.8625278-4.785 4.15-.3589726.2752615-.8580274.2752615-1.217 0-1.6790639-1.2856532-3.2789746-2.6715078-4.791-4.15-.2951784-.2820503-.3892566-.7152171-.2376676-1.0942995.1515889-.3790823.5184004-.6279467.9266676-.6287005h9.411c.4089965-.0008811.7773048.2473884.9299238.6268437.152619.3794554.0587823.8136022-.2369238 1.0961563z" fill="#ffdc00"/><circle id="Oval" cx="23" cy="24" fill="#f5f5f5" r="18"/><path id="Shape" d="m23 6c-.506 0-1 .035-1.5.076 9.3272756.77016973 16.5049834 8.5649813 16.5049834 17.924s-7.1777078 17.1538303-16.5049834 17.924c.5.041.994.076 1.5.076 9.9411255 0 18-8.0588745 18-18s-8.0588745-18-18-18z" fill="#cfd8dc"/><rect id="Rectangle-path" fill="#ffdc00" height="20" rx="2" width="18" x="14" y="12"/><path id="Shape" d="m30 12h-3c1.1045695 0 2 .8954305 2 2v16c0 1.1045695-.8954305 2-2 2h3c1.1045695 0 2-.8954305 2-2v-16c0-1.1045695-.8954305-2-2-2z" fill="#fec108"/><path id="Rectangle-path" d="m14 17h18v7h-18z" fill="#02a9f4"/><path id="Rectangle-path" d="m29 17h3v7h-3z" fill="#0377bc"/><path id="Shape" d="m20 32-1.92 5-1.48 3.83c-1.404489-.536035-2.7351516-1.2484099-3.96-2.12l3.36-6.71z" fill="#a0522d"/><path id="Shape" d="m33.36 38.71c-1.2248484.8715901-2.555511 1.583965-3.96 2.12l-1.48-3.83-1.92-5h4z" fill="#a0522d"/><g fill="#000"><path id="Shape" d="m21.913 60.675c.6610253.4307279 1.5139747.4307279 2.175 0 2.087-1.362 20.427-13.894 21.826-34.182.4614532-6.6409333-1.8071028-13.1825804-6.281-18.112-4.1404686-4.59095457-9.9968685-7.26286011-16.178-7.381-6.1784285-.12224947-12.1461423 2.24688156-16.55839283 6.57353951-4.41225053 4.32665799-6.8978165 10.24682279-6.89660717 16.42646049 0 21.746 19.669 35.211 21.913 36.675zm-13.613-51.668c3.9154924-3.86345199 9.1993548-6.02264665 14.7-6.007h.419c5.6323446.11015558 10.9677829 2.54710319 14.739 6.732 4.1048398 4.5247197 6.1855691 10.5285321 5.761 16.623-1.333 19.323-18.919 31.338-20.914 32.645-2.15-1.4-21.005-14.307-21.005-35-.0166782-5.6445352 2.25657044-11.0545062 6.3-14.993z"/><path id="Shape" d="m27.7 48h-9.411c-.8150999.0000082-1.5486453.4946684-1.8541681 1.2503427-.3055228.7556744-.1218887 1.6211547.4641681 2.1876573 1.5417888 1.5076449 3.1734404 2.9205629 4.886 4.231.7181635.5465833 1.7128365.5465833 2.431 0 1.7068739-1.3120637 3.3347119-2.7238584 4.875-4.228.5883898-.5663003.7733818-1.4334457.4673226-2.1905628-.3060593-.7571172-1.0416857-1.2521091-1.8583226-1.2504372zm-.007 2.007c-1.4821249 1.4492778-3.0492315 2.8090173-4.693 4.072-1.651021-1.2635833-3.2242185-2.6257299-4.711-4.079h9.411z"/><path id="Shape" d="m42 24c0-10.4934102-8.5065898-19-19-19s-19 8.5065898-19 19 8.5065898 19 19 19c10.4886126-.0115735 18.9884265-8.5113874 19-19zm-24.093 16.219.854-2.219h8.478l.854 2.219c-3.3155243 1.0411118-6.8704757 1.0411118-10.186 0zm12.093-27.219c.5522847 0 1 .4477153 1 1v2h-16v-2c0-.5522847.4477153-1 1-1zm1 5v5h-7v-5zm-16 0h7v5h-7zm0 11h2c.5522847 0 1-.4477153 1-1s-.4477153-1-1-1h-2v-2h16v2h-2c-.5522847 0-1 .4477153-1 1s.4477153 1 1 1h2v1c0 .5522847-.4477153 1-1 1h-14c-.5522847 0-1-.4477153-1-1zm10.313 4 1.156 3h-6.938l1.156-3zm2.142 0h1.927l2.683 5.357c-.6750725.4283625-1.3794827.8086371-2.108 1.138zm-10.837 0h1.927l-2.5 6.495c-.7285173-.3293629-1.4329275-.7096375-2.108-1.138zm-10.618-9c-.00738673-7.9150314 5.4486526-14.78794439 13.1590145-16.57626649 7.7103619-1.78832209 15.6347724 1.98116277 19.1122949 9.09133959 3.4775226 7.1101768 1.5879541 15.6795891-4.5573094 20.6679269l-2.285-4.562c.9642764-.5198979 1.5670274-1.5255061 1.571-2.621v-16c0-1.6568542-1.3431458-3-3-3h-6v-1c0-.55228475-.4477153-1-1-1s-1 .44771525-1 1v1h-6c-1.6568542 0-3 1.3431458-3 3v16c.0039726 1.0954939.6067236 2.1011021 1.571 2.621l-2.285 4.562c-3.97595365-3.2216924-6.2856685-8.0656267-6.286-13.183z"/></g></g></g></svg>